<svg xmlns="http://www.w3.org/2000/svg" viewBox="0 0 822.34 1936.4"><g id="Layer_2" data-name="Layer 2"><g id="Layer_1-2" data-name="Layer 1"><path d="M427.09,1872.33c4.15-25.72,19-44.81,39.62-60.55-3.71.81-7.44,1.53-11.12,2.44a327.94,327.94,0,0,1-73.81,9.86c-14.34.22-28.73,0-43-1-8.35-.57-14,2.62-18.46,8.89a104.65,104.65,0,0,0-7.05,11.61c-7.42,14-14.25,28.24-23.66,41-3.19,4.31-6.71,8.38-10.08,12.56l-1.1-.76c.61-.93,1.17-1.9,1.84-2.79,10.11-13.38,18.3-27.92,26-42.78,4.89-9.43,8.91-19.46,18.5-27.21-3-.22-4.49-.45-6-.42-7.81.17-15.64.19-23.43.66-21.61,1.29-43.25,1.77-64.81-.14-14.73-1.3-24.65,5-32.22,16.75-11.14,17.35-13.62,36.22-11.22,56.38,1.46,12.23,1.4,24.64,2,37a14.17,14.17,0,0,1-.64,2.57c-.55-4.83-1-8.57-1.38-12.32-1.08-11-2.37-22-3.1-33-.46-7-.08-14.1-.08-21.86-6.37,11.79-12.55,23.25-18.73,34.71l-.89-.36c.44-1.15.81-2.34,1.35-3.44q13.26-26.86,26.56-53.7c4.25-8.58,9.48-16.35,17.82-21.56.24-.16.3-.61.6-1.25-1.67-.23-3.24-.57-4.81-.64-16.75-.71-33.43,0-49.92,3.16-10.8,2.09-20.75,6.48-30.26,11.93-19.64,11.27-37.82,24.42-53.47,40.91-13,13.66-28,24.77-43.69,35a9.49,9.49,0,0,1-5,1.74c1.35-1,2.68-2.13,4.06-3.14,16.74-12.23,32.81-25.19,47.27-40.18,16.42-17,36-29.87,56.92-40.71,14.3-7.42,29.78-10.21,45.67-11.25,19.08-1.26,38.13,0,57.19.78,22,.94,43.93.49,65.91-.45,17.41-.74,34.87-.13,52.31-.12a14.16,14.16,0,0,0,5.56-.8c-.94-.67-1.87-1.35-2.81-2q-12.74-8.88-25.46-17.76c-3-2.08-6-4.13-8.88-6.3-11.29-8.43-24-11.63-38-12.94-19.26-1.79-37.59,1.32-55.92,6.23-11.39,3-22.83,5.91-34.25,8.85a4.35,4.35,0,0,1-2.84-.08,16,16,0,0,1,2.68-1.28c18.76-5,37.47-10.13,56.31-14.77a73,73,0,0,1,17.28-1.8c8.89,0,17.79.52,26.66,1.17a46,46,0,0,1,21.54,7c6.29,4,12.39,8.25,18.52,12.46,8.38,5.76,16.69,11.62,25.08,17.36a31.07,31.07,0,0,0,19,5.44,357.54,357.54,0,0,0,73.39-9c5.12-1.21,10.25-2.41,15.35-3.69a131.94,131.94,0,0,0,30.21-12.09c27.38-14.61,55.21-28.29,84.19-39.55,15.9-6.18,31.74-12.52,47.39-19.28a240.25,240.25,0,0,0,28.23-14.07c14-8.37,27.66-17.39,41.2-26.53,15.16-10.23,28.1-22.94,39.87-36.92a906.16,906.16,0,0,0,55.51-73.45,135,135,0,0,0,14.57-28.57q3.27-8.65,6.76-17.22a87.93,87.93,0,0,0,6.11-29.71c.63-14.74-3.79-28.32-11.61-40.76-8.6-13.68-17.41-27.24-26-41-4.32-6.94-8.62-13.93-12.25-21.23-14-28.25-31.16-54.54-49-80.44-9.58-13.92-18.68-28.16-29.67-41.06-16.05-18.84-36.13-31.79-58.85-41-1.48-.6-3.07-.91-5-1.45a8.32,8.32,0,0,0-.45,2.19c.94,8.11-.68,15.93-2.65,23.69a164.22,164.22,0,0,1-14,36.53,33.46,33.46,0,0,0-2.92,24.82c1.61,6.3,4.33,12,9.05,16.5,3.54,3.37,7.39,6.43,11.19,9.51,5,4,10.11,7.73,15,11.84,21,17.8,32.77,41.26,40.87,67a2.91,2.91,0,0,1-.34,2.3c-.58-1.32-1.13-2.64-1.72-4-4.32-9.6-8.34-19.35-13-28.75-8.21-16.4-20.54-29.4-34.93-40.53-4.6-3.56-9.29-7-13.91-10.53-9.8-7.5-15-17.56-16.21-29.72-.74-7.11,1.43-13.6,4.26-20,3.59-8.12,7.46-16.19,10.21-24.61a217.33,217.33,0,0,0,6.19-25.9c.7-3.62.12-7.5.12-11.15a82.32,82.32,0,0,0-33.25-7.08,227.18,227.18,0,0,0-56.68,6.4c-15.52,3.79-30.69,8.69-45.81,13.87-16.11,5.53-32.55,10.09-48.86,15.07-1.55.47-3.11.89-5,1.44,2.95,6.23,3,12.67,2.84,19.18-.27,10.89-.81,21.82,2.12,32.5.76,2.75,1.57,5.48,2.69,9.4-3.93-4.47-4.77-8.92-5.83-13.24-2.46-10-2.33-20.16-1.87-30.34.37-7.94-.2-11.16-2.85-16.52-5.28.71-10.62,1.55-16,2.12-14.28,1.51-27.79-1.29-40.72-7.4-17.31-8.18-33.19-18.74-49.05-29.32-8-5.33-15.82-10.91-23.84-16.46a37.55,37.55,0,0,0-13.41,10c-2.9,3.25-5.68,6.61-8.5,9.94a65.1,65.1,0,0,1-27.48,19c-11.5,4.29-23.49,6.2-35.59,7.55-5.6.63-11.2,1.16-16.81,1.65-1.67.14-3.37,0-5,0l-.05-1.4c5.43-.79,10.85-1.65,16.29-2.36,11.34-1.49,22.65-2.92,33.7-6.18,14.59-4.29,26.67-12.06,36.11-24,5-6.29,10.2-12.35,18.07-16.07a296.84,296.84,0,0,0-74.86-48.79,11.73,11.73,0,0,0-1.88,1.51c-10.89,12.75-25.09,20.16-40.79,24.94-21.73,6.62-44,10.89-66.3,15.13q-13.64,2.58-27.19,5.63c-6.33,1.42-11.13,5.45-14.8,10.5-2.74,3.77-4.67,8.16-6.77,12.36a42.88,42.88,0,0,0-2.44,6.64c-7.89,25.93-24.66,45.77-43.73,64a31.31,31.31,0,0,1-3,2.4,2.1,2.1,0,0,1-1.89.27c.76-.77,1.5-1.55,2.27-2.3A227.76,227.76,0,0,0,49,1276.26c3.86-5.85,6.5-12.53,9.49-18.93,1.38-2.95,2.2-6.15,3.41-9.18,1.82-4.55,3.37-9.26,5.75-13.51,2.25-4,5.41-7.55,8.22-11.36-18.66,4.93-37.45,9.56-53.93,20.55l-.63-1.14c1.62-1.18,3.17-2.46,4.87-3.53,9.45-5.92,19.7-9.86,30.35-13.16,26.24-8.13,53.18-13.07,80-18.51,14.92-3,29.74-6.7,44.39-10.85,19.9-5.62,35.69-17.14,47.58-34.32,13.5-19.52,21.19-41.19,25.9-64.18a321,321,0,0,0,5.75-49.16c1.2-24.6-.72-49-4.29-73.29C252.05,950,247.2,924.52,243,898.91c-5.31-32.32-9-64.79-6.88-97.6.67-10.29,2.43-20.54,4.23-30.71,2.57-14.46,5.2-28.94,8.64-43.21a137.65,137.65,0,0,1,14.36-35.2c2.75-4.87,6.28-9.29,9.81-14.44-1.59.33-2.72.5-3.82.81-13.78,3.93-27.46,8.13-40.67,13.84a155.34,155.34,0,0,0-39.89,25.22c-21.35,18.4-39.12,40-55.22,62.94-6.65,9.51-12.43,19.63-18.6,29.47l-3.57,5.71-1.09-.6c1.59-3.18,3.09-6.4,4.77-9.53,11.61-21.54,26.31-40.93,42.1-59.5,6.69-7.87,14-15.25,21.29-22.6A160.55,160.55,0,0,1,245.4,683c28.73-9,57.48-18,86.5-26,25.52-7,51.32-13.21,77.2-18.81C443.35,630.76,475.91,618.6,508,605c8-3.4,16-6.78,24-10.23,21.48-9.28,40.95-21.9,59.53-36,6.45-4.89,11.54-11,16-17.67,1.6-2.37,1.92-4.51.56-7-4.57-8.45-8.66-17.2-13.71-25.34-5.93-9.56-12.55-18.71-19.11-27.86a115.24,115.24,0,0,0-37.56-34.14c-13.3-7.47-27.6-10.92-42.29-13.21-9.12-1.42-18.43-1.61-27.66-2.31a34.13,34.13,0,0,0-3.81.2,55.75,55.75,0,0,1,11,22.24,101.77,101.77,0,0,1,2.63,13.89c.33,3.36,1.73,5.37,4.65,6.62,5.33,2.28,10.54,4.92,16,6.76,10.36,3.49,19.15,9.47,27.4,16.39a5.12,5.12,0,0,1,1.72,3.21c-2.6-1.79-5.22-3.56-7.81-5.38a95.36,95.36,0,0,0-23.74-12c-5.6-1.94-10.95-4.6-17-7.17,1.24,10.26,1.12,20.25.81,30.23l-1.41.09c-.15-2-.43-3.93-.41-5.9.2-13.87-1.76-27.52-4.38-41.08-1.6-8.28-4.29-16.15-9.08-23.17-2.23-3.28-4.73-5.33-9.37-5-27.38,1.94-54.82,1.49-82.26,1.59-13.78,0-27.56,1.18-41.34,2-24.82,1.41-49.52,4.84-74.47,4.41-11-.2-21.74-1.16-32.16-4.78-17.29-6-28.64-17.91-34.85-35-.16-.44-.37-.86-.74-1.71a14.56,14.56,0,0,0-1.36,1.95,318,318,0,0,0-19.4,53.69c-1.63,6.41.27,10.91,4.4,15.2,5.89,6.12,13.47,8.68,21.6,9,10.69.37,21.47.65,32.11-.25,25.31-2.17,50.54-5.42,75.86-7.54,20.24-1.7,40.5-4,60.91-2.59,19.23,1.29,36.94,7.22,53.55,16.77a17.75,17.75,0,0,1,2.22,1.56,10.56,10.56,0,0,1,1,1.84c-26.11-14.05-52.93-20.56-81.29-17.61,4.72,6.79,10,13.27,14,20.45,4.66,8.31,8.21,17.24,12,26.05-6.3-6-9.28-14.12-13.18-22.38-6.77,8.32-16.34,10.88-25.41,14.32a154.32,154.32,0,0,0-24.52,12c1.57-1.42,3.05-3,4.74-4.23,6.33-4.7,13.55-7.65,20.81-10.55a134.57,134.57,0,0,0,14.43-6.35c9-4.88,9.58-7.86,3.55-16.13-2.56-3.52-5.42-6.82-8.28-10.1a8.61,8.61,0,0,0-7.82-2.89c-19,1.85-38,3.38-56.92,5.39-22.22,2.36-44.42,4.93-66.79,4.84a122.2,122.2,0,0,1-20.5-2.22c-6.68-1.17-12-4.95-16.08-10.43a30.2,30.2,0,0,0-2.14-2.28C163,482.81,166,500,164.73,517c-6.34-35.24-.31-68.92,12.74-101.88-1.86,1.66-3.69,3.35-5.59,4.95a125,125,0,0,1-28.58,17.8c-17,7.82-33.77,16.05-50.92,23.47-7.78,3.38-15.58,16.83-13,25.88,2.16,7.48,4.69,14.87,7.51,22.13a62.47,62.47,0,0,1,4,17.13l-1.21.37c-.63-2-1.25-3.92-1.91-5.87-1.32-4-2.61-7.91-4-11.83-1.47-4.1-3.25-8.09-4.53-12.25s-2.08-8.44-3.31-13.58c-5.76,11.89-8,24.26-11.88,36.09,1.63-18.61,6.56-36.13,17.78-52.18a9.47,9.47,0,0,0-2.37.26q-20.3,9.3-40.54,18.67c-14.46,6.68-26,16.52-33.3,30.9A47.33,47.33,0,0,1,0,525.39C7.12,506,19.61,491.53,40.24,483.18c-7.38-2.44-13.42-3.63-19.49-2.79-5.84.8-11.53,2.6-17.36,3.72a36.59,36.59,0,0,1,21.82-6.23,85.73,85.73,0,0,1,12.9,1.88,16.88,16.88,0,0,0,11-1.3q45.14-21.09,90.42-41.85A136.86,136.86,0,0,0,166.32,421c9.68-7.47,17.46-16.39,21.49-28.16a29,29,0,0,0,.64-3.63c.2-1.06.46-2.11.76-3.45-7.12-7.32-14.33-14.74-22.74-20.84-22.93-16.63-38.77-38.37-47.89-65.22C110.46,275.8,102.16,252,96,227.46c-.43-1.7-.76-3.43-1.13-5.14l1.24-.48c.82,1.66,1.68,3.31,2.46,5,4.66,10,9.12,20.19,14,30.13a157,157,0,0,0,26.49,37.82c11.75,12.66,23.49,25.31,32.83,40a8.19,8.19,0,0,0,1.36,1.21,5.3,5.3,0,0,0,.09-1.63c-6.05-18.61-8.34-37.89-10.41-57.23-1.4-13-3.3-25.93-4.87-38.9a84,84,0,0,1-.48-9.78,28.47,28.47,0,0,1,.89-4.83c2.86,1.38,3,3.48,3.36,5.32,1.84,9.08,3.6,18.17,5.38,27.26,3.15,16.06,8.2,31.57,13.77,47-9.57-40.31-12-81.29-13-122.26,3.08-1.16,3.51.65,3.86,2.22,1.3,5.85,2.66,11.69,3.72,17.58q8.63,48,17.07,96c2.33,13.3,2.7,26.74,2.25,40.21a25,25,0,0,0,2.38,11.81C199,339.9,198.8,332,198.64,324c-.35-16.15-.59-32.31-1.15-48.46-.46-13.05,1.95-25.62,5-38.2,6.06-24.87,12.39-49.71,17.35-74.8,3.68-18.64,3.67-37.61-2.31-56.07A76.65,76.65,0,0,0,197.2,74.09c-2.49-2.36-4.74-5-7.94-6.91.28,1.24.55,2.47,1,4.35l-3.69-1.44c-3.11,3.7-3.11,3.7-7.36-.07.87,2.58,1.52,4.5,2.18,6.48-3.31,1.29-4-2.07-7-3L177.86,81c-4.12.69-5.8-3-9.27-4l4.8,7.15c-4.71.18-7.61-1.91-8.72-6.53-1-4.35-1.88-8.74-3-14.13-3.31,2.39-6,4.32-8.68,6.27-5.86,4.26-11.55,8.8-17.65,12.68-3,1.9-6.67,2.72-10.12,3.77a9.54,9.54,0,0,1-4.32,0c-3.49-.66-6.89-4.59-2.72-8.42.62-.57,1.27-1.11,1.51-1.32-2.17-2.5-4.28-4.63-6-7a3.43,3.43,0,0,1,.2-3.34,5.12,5.12,0,0,1,3.78-.94c1.47.22,2.83,1.2,4.52,2-.77-2.49-2-4.48-1.77-6.25.29-1.94,2-3.67,3.08-5.51-5.23-3.74-4.17-7.93,1-10.73-1-5.78-.85-6,4.06-7,1.33-7.37,2.37-8.36,10-9.15.77-2.68,1.57-5.53,2.41-8.37,1-3.15,3.62-3,6.1-3,1.34-4.59,1.34-4.59,6.18-5.14,1.94-4.62,1.94-4.62,8.08-5.5,2.11-4.92,3-7.4,9.69-5.49a3.77,3.77,0,0,0,2-.21c3.95-1.25,5.18-1.23,7,2.13a26,26,0,0,1,3.13,9.64,35.22,35.22,0,0,1-.88,10.8,45.15,45.15,0,0,0,.12,17.3c.84,4.81,3.7,6.93,8.32,5.51,4-1.23,7.85-1.75,11.4,1,.9.69,1.46,1.83,2.64,3.36H199l2.94,7.18-.92.68-6.24-3.09c1.26,2.6,2.25,4.63,3.52,7.23-4.23.42-5.66-3.41-9.36-3.83,2.8,3.69,3.86,7.84,7.28,10.69,17.92,14.93,26.6,34.55,28.51,57.41,1.59,19-1.06,37.68-5.67,56.13-5.56,22.19-11.07,44.39-16.36,66.65A79.2,79.2,0,0,0,201,279.5c.37-1.61.84-3.21,1.1-4.83,4.19-26.36,11.36-51.8,23.5-75.66a209.25,209.25,0,0,1,26.73-40.35c.58-.69,1.28-1.3,1.79-2,.92-1.33,1.74-2.72,3-4.64l-4.58,1c0-.62-.2-1.39,0-1.57,1.28-1,2.66-1.78,4-2.62,1.75-1.08,3.52-2.13,5.33-3.23-3.49-8-2.42-15.2,1.17-22.12,2-3.82,3.86-7.45,9.48-6.82,2.37.26,5.58.15,7.22-3.1l1,.72-1.93,10.33,11.86-6.16,1,.9-2.91,7.32,5.31-2.84.83.51c-.76,1.88-1.51,3.77-2.44,6.09l7.39-.72-3.39,7.71,8.85,1c-5.45,5-11.07,7.52-16.93,10.34l11.28-1c-2.39,4.05-9.59,7.51-15.69,7.84s-11.73-1.63-17-4.5c-2.58,2.93,2,5.13.22,7.81-1.15-2.11-2.34-.49-3.61-.05l-1.32-2.52L259.65,159l-1.56-2.64c-2.93,3.49-5.71,6.6-8.26,9.89-20.77,26.74-33.84,57-41.11,89.93-2,8.87-3.92,17.77-5.12,26.75a163.73,163.73,0,0,0-1.33,23.32c.19,19.45.95,38.89-3.14,58.1a36.23,36.23,0,0,0-.29,4.75,26.15,26.15,0,0,0,5.67-10.55c1.84-7,3.71-14,5.49-21.09,5.39-21.26,13.9-41.26,24.43-60.45,5.68-10.35,11.21-20.78,16.85-31.15a7.12,7.12,0,0,1,3.46-3.34,9.84,9.84,0,0,1-.13,2.25c-2,6.58-4.49,13-6.16,19.71-5.25,21-12.61,41.32-20.77,61.35a21.36,21.36,0,0,0-1.76,6.09c1-1,2.11-2,3.05-3C252.7,302,273.63,273,292.61,242.55q5.19-8.33,10.44-16.62c.77-1.23,1.54-2.47,2.41-3.62,1.06-1.4,2-3.48,4.24-2.34,1.91,1,1,2.89.54,4.4-2.46,8.16-4.47,16.52-7.58,24.43C292.72,274.06,281,298.5,264.19,320c-13.38,17-28.69,32.3-45.1,46.49-7.41,6.4-14.33,13.37-21.36,20.2-4.49,4.37-4.85,9.84-3.4,15.57,2.64,10.53,9.85,17.63,18.35,23.49,10.13,7,21.78,9.84,33.84,10.87,18.53,1.57,37-.16,55.45-1.76,26.95-2.33,53.89-4.73,81-4.78,26-.05,51.95-.71,77.92-1.19,21.4-.39,42.41,2,62.79,8.81.85.29,1.68.67,2.55.92,12.31,3.58,22.52,10.76,32,19a23.34,23.34,0,0,0,10,5.22c19.63,4.81,39.56,8,59.75,8.45,17.6.39,35.23-.23,52.84-.6,17.45-.36,34.88-.77,52.1,2.94a94.92,94.92,0,0,1,48.34,26.83c1.23,1.24,2.26,2.67,3.39,4l-.73.83c-2.53-2.09-5.1-4.15-7.58-6.3a101.78,101.78,0,0,0-32.56-19.42,95.63,95.63,0,0,0-20.85-5c8,8.76,7.3,18.74,8.65,28.21l-1.08.23c-.65-3.68-1.41-7.34-1.9-11a29.53,29.53,0,0,0-6.13-14.91,7.79,7.79,0,0,0-6.43-3.38c-11.8-.07-23.6-.48-35.39-.46-19.25,0-38.52.9-57.75.32-18-.54-35.74-3.57-53.22-8-.85-.22-1.73-.33-3.15-.6.62,1.06.91,1.65,1.29,2.18,10.09,14.21,20.47,28.22,30.19,42.68,7.52,11.19,12.71,23.49,16.55,36.54,7.2,24.51,8.88,49.57,9.17,74.84.17,14.72.25,29.44.07,44.16A151.91,151.91,0,0,1,615.31,715a89.08,89.08,0,0,1-17.25,29.43c-20.27,22.88-43.23,42.48-69.94,57.56-9.47,5.35-18.95,10.74-28.07,16.66a207.81,207.81,0,0,0-42.26,36.67c-16.81,18.92-33,38.25-45.45,60.42-3.72,6.63-6.68,13.69-10.12,20.49-2.18,4.31-2.1,8.66-1.16,13.24,1.5,7.25,4.85,13.67,8.49,20,9.61,16.58,23.16,29.71,37.1,42.54,22.57,20.77,49.67,32.4,79,39.6A670.63,670.63,0,0,0,611.3,1067c13.35,1.49,26.67,3.27,40.05,4.48,14.46,1.3,29,2.18,43.47,3.07,23.31,1.42,45.59,6.46,66,18.29a19.54,19.54,0,0,1,4.36,3.14c-19.7-9.44-39.81-17.3-62.77-18.08a150.32,150.32,0,0,1,29.64,45.95l-1,.59c-1-1.68-2-3.33-3-5-6.52-11.77-13.22-23.41-22-33.68a53.63,53.63,0,0,0-5-5,16.37,16.37,0,0,0-10.38-4c-26.44-1.81-52.87-3.52-79.19-7.06-23.23-3.13-46.4-6.47-69.27-11.48a440.94,440.94,0,0,1-44.52-12.39c-24.11-8-44-22.9-62-40.48-12-11.71-23.45-23.89-31-39.1-2.57-5.16-4.63-10.57-7.07-16.2a62.21,62.21,0,0,0-3.7,16.13c-.85,7-1.56,14.08-1.89,21.15-.59,12.88-.86,25.77-1.25,38.66a9.18,9.18,0,0,1-1,4.95,58.29,58.29,0,0,1-1.06-7.14c-.6-21.28.29-42.49,3.75-63.52,2.42-14.66,8-28.26,15.09-41.25,13.19-24.28,30.37-45.61,48.82-66,11.87-13.12,24.58-25.37,39.23-35.25,9.61-6.47,20.08-11.66,30.21-17.33,26.77-15,49.64-34.72,69.88-57.61,12.93-14.63,19.3-32.16,22.83-51,2.78-15,2.34-30,2.3-45.1,0-14.53,0-29.08-.35-43.61a234.75,234.75,0,0,0-9.16-59.55,15.1,15.1,0,0,0-.9-1.88c-.85,1.1-1.61,2-2.25,2.93a70.32,70.32,0,0,1-16.3,17.42C572,577,551,590.26,527.8,599.65c-24.21,9.79-48.26,20.11-72.91,28.7-17.41,6.07-35.69,9.66-53.59,14.34-1.91.5-3.85.95-5.87,1.44-2.44,6.66-1.41,13.09,1.3,19.12,2.37,5.27,5.59,10.16,8.45,15.21,3.4,6,6.85,12,10.21,18a7.09,7.09,0,0,1,.86,4.27c-.66-1-1.34-2.06-2-3.11-3.83-6.17-7.68-12.33-11.47-18.52q-3.56-5.8-6.93-11.72c-3.93-6.86-4.55-14.38-3.73-22.6-9.62,2.31-18.77,4.47-27.9,6.69-27.15,6.61-54.11,13.94-80.75,22.41a16.7,16.7,0,0,0-8.26,5.73c-13.65,16.73-21.18,36.32-26.07,57A445.75,445.75,0,0,0,238.59,801a245.79,245.79,0,0,0,1,52.78c3.09,23.75,6.79,47.42,10.47,71.09,2.87,18.46,6.46,36.83,9.07,55.33a381,381,0,0,1,3.77,70.64,295.13,295.13,0,0,1-10.66,67.62,153.33,153.33,0,0,1-22.57,46.89c-1,1.46-2,3-3.26,4.71,2,1.07,3.76,2,5.53,2.91a323.78,323.78,0,0,1,60.4,38.75c21.27,17.4,44.19,32.48,67.82,46.44a178.75,178.75,0,0,0,20.37,10.36c16.3,7,33.2,7.24,50.21,3a612.48,612.48,0,0,0,63-18.93c19.95-7.32,40.42-13.1,61.5-16.13,17.67-2.53,35.46-3.44,53.18-.5a91.61,91.61,0,0,1,16.28,4.28c23.29,8.44,44.69,20.14,62.22,38,5.58,5.68,10.5,12,16.15,18.55,9.89-3,20-1,30.15,1.22,11.87,2.56,22.31-.17,31.44-8.12,5.66-4.93,11.33-9.84,17.49-14.46a19.52,19.52,0,0,1-2.54,3.8c-6.53,6-12.92,12.23-19.86,17.74-6.6,5.24-14.61,6.15-22.8,4.93-6.64-1-13.21-2.47-19.87-3.26-3.86-.45-7.83,0-12.81.11,1.83,2.65,2.95,4.26,4,5.88,16.72,24.66,34.22,48.8,49.22,74.58,2.74,4.7,5.48,9.43,7.92,14.29,11.46,22.75,25,44.26,38.68,65.71,3.42,5.36,6.88,10.71,9.8,16.35,7.75,15,10,30.79,7.22,47.56-2.78,17-8.49,33-16,48.43-3,6.15-7.13,11.78-11,17.44-17.15,24.83-35.28,48.91-54.65,72.06a225.9,225.9,0,0,1-42.11,39.32,28.53,28.53,0,0,0-7.05,7.36,74.18,74.18,0,0,0-7.24,13.37c-7.39,18.79-13.27,38-15.9,58.15a53.93,53.93,0,0,0,6.55,34.14c9.11,16.3,22.3,28.56,38.43,37.67,8.84,5,17.92,9.58,27,14.15,12.08,6.07,23.41,13.19,33.31,22.46a17,17,0,0,1,4.48,6.45c-2-1.73-3.91-3.49-5.92-5.18a158.28,158.28,0,0,0-31.86-20.79c-8.44-4.22-16.86-8.49-25.12-13.05-16.48-9.09-30.52-20.94-40.66-37a13.57,13.57,0,0,0-1.32-1.46c-5.65,11.58-15.94,17.18-27.07,21.54q-15.2,6-30.62,11.3c-2.64.91-4.67,2.13-5.52,4.69-1.65,5-3.11,10-4.56,15a42.3,42.3,0,0,1-1.55,5.46c-1.11-7.62.23-14.83,3.68-22.49-14.87,3.77-28.92,7.65-42.26,13.85s-24.43,15.4-35.43,26.85c1.21-4,3.27-6,5.22-7.94,11.17-11.21,23.88-20.17,39-25.22,12.73-4.26,25.74-7.68,38.42-12.05,12.51-4.31,24.9-9,37.07-14.21A62,62,0,0,0,663,1824c2.67-2.2,4.47-5.64,6.12-8.8a6.73,6.73,0,0,0-.09-5.08,65.24,65.24,0,0,1-3.44-38,298.56,298.56,0,0,1,14.24-50.22c1.61-4.23,3.72-8.26,5.84-12.89a13.14,13.14,0,0,0-2.39,1c-24.31,16.52-50.52,29.17-77.94,39.67-17.76,6.8-35.09,14.79-52.45,22.61-16.53,7.45-32.87,15.31-49.22,23.13-4.25,2-8.23,4.63-12.36,6.91a31.13,31.13,0,0,1-5.85,2.88c-13,3.93-22,13.62-31.66,22.26-8.66,7.73-14.93,17.26-19.54,27.88C431.85,1861,429.49,1866.68,427.09,1872.33ZM148.51,32.65l2.76,1.84c.72-.82,1.58-1.38,1.83-2.15.84-2.61-2.41-11.27-5-12.46a6.12,6.12,0,0,0-4.86,0c-1.62.88-1.05,2.84-.13,4.31,1.7,2.73,3.45,5.44,5.18,8.16-1-1-2-1.89-3-2.85-1.32-1.29-2.62-2.59-4.66-4.6-.26,2.24-.81,3.49-.41,4.17,1.53,2.55,3.37,4.92,5.52,8ZM104.86,248l-.8.34c.28,1,.5,2,.85,3,5.83,16.8,11.62,33.61,17.52,50.38,8.45,24,23.3,43.36,43.58,58.54a156.57,156.57,0,0,1,22.05,20.22c.78.85,1.7,1.56,2.84,2.59.25-6.32-3.24-10.75-5.46-15.65A231.71,231.71,0,0,0,140,301.36a166.22,166.22,0,0,1-31.79-46.58C107.16,252.49,106,250.25,104.86,248Zm199.89-15.47-1-.47c-1.08,1.64-2.21,3.24-3.23,4.91-13.42,22-27.45,43.66-43.49,63.86C245.4,315.46,232.78,329.3,221.2,344c-6,7.64-10.89,16.24-16,24.55-1.66,2.68-2.55,5.82-4.22,9.75,28.92-24.69,56.87-48.76,75.36-81.39C287.92,276.4,299.2,255.68,304.75,232.52Zm-113.36,138,.88-.2c-.14-2.64-.17-5.29-.45-7.92a216.35,216.35,0,0,0-11.28-48.71c-7-20.24-13.73-40.6-17.24-61.84-.55-3.34-1.26-6.65-1.89-10a8.31,8.31,0,0,0-.46,4.41c1.37,11,2.94,21.94,4.14,32.94a322,322,0,0,0,7.14,42.39c3.19,13,8.62,25,14.09,37.11C188.08,362.67,189.71,366.64,191.39,370.57ZM171.51,192.49c0,46.08,4.59,91.65,20.59,135.47a171,171,0,0,0-1.49-24.41c-3.27-21.35-6.88-42.65-10.54-64C177.36,223.87,174.37,208.19,171.51,192.49Zm39.22,157.57c7.82-8.33,32.93-71.48,33.11-83.2C228.57,293.08,216.67,320.07,210.73,350.06ZM161.14,62.14a8.75,8.75,0,0,0-9.11.72c-3.63,2.37-7.24,4.8-10.63,7.49-4.65,3.68-9.59,6.27-15.68,6.68a14.58,14.58,0,0,0-6.43,2.49,2.41,2.41,0,0,0,.57,4.34,7.08,7.08,0,0,0,4.2.53c3.63-1,7.61-1.61,10.65-3.6C143.73,74.89,152.36,68.4,161.14,62.14Zm-46.08,4.2c.09,3.56,1.42,5.22,3.49,6.61,5.67,3.79,11.29,2.1,16.33-.82,6.28-3.63,12.06-8.12,18.06-12.24-4.25,1-8.53,2.19-12.06,4.5-6,3.9-13,2.06-19.2,4.27-.78.27-2-.62-3-1Zm13.76-.23c10-1.76,17.21-7.76,26-9.18-4.88-1.74-8.9-6.77-14.64-3.28C135.6,56.4,130.53,58.63,128.82,66.11ZM178.7,42.64c.17-11.95-1.25-22.92-13.15-29.63-1,4.58.3,7.92,3.73,10.27,4.31,2.94,6.4,6.67,5.49,12C174.23,38.44,175.53,40.88,178.7,42.64Zm-5.81.66a62.76,62.76,0,0,0-9.09-18.4c-.62-.9-2.28-2-2.92-1.75a5.47,5.47,0,0,0-2.64,3c-1,3,.84,5.22,2.8,7.14,3.09,3,6.31,6,9.51,8.88A11.54,11.54,0,0,0,172.89,43.3ZM275.37,147a10.91,10.91,0,0,0,9.15.38c2.5-1,5.14-1.68,7.62-2.73,2.69-1.14,5.27-2.55,7.89-3.85C290.61,138.55,283.15,142.55,275.37,147ZM153.58,53.53c-2.74-3.83-5.3-7.47-7.91-11.06-1.17-1.6-2.9-2.65-4.69-1.66-1.22.68-2.68,2.42-2.6,3.58A5.84,5.84,0,0,0,141,48.64C144.93,50.55,149.16,51.87,153.58,53.53Zm-17.13-.27c-2.75-2-5.13-3.84-7.64-5.47-2.29-1.48-5.17-.94-6.17.94s-.14,3.81,2.27,5.25C128.85,56.32,132.49,56.16,136.45,53.26Zm136.49,85.19c6.93-4.17,12.91-8,15.41-16.85C280.82,125.69,275.33,130,272.94,138.45ZM156.76,33.13c-.19-3.14-1-5.36-.3-7,1.93-4.49-1-7.54-2.58-11a2.5,2.5,0,0,0-3.6-1.39c-1.66.89-1.24,2.39-.66,3.78q2.79,6.7,5.64,13.4A16.74,16.74,0,0,0,156.76,33.13Zm121.15,89.15-1.05-.69c-7.09,7.26-10.59,15.54-8.57,21.44C271.64,135.82,274.77,129.05,277.91,122.28Zm-8.57,23.5a32.85,32.85,0,0,0,19.16-14.31C282,136,274.53,139.34,269.34,145.78Zm-126-108.94c-3.83-5.75-7.22-7.45-10.29-5.63-2.78,1.65-2.9,5,0,9.81C134.38,35.17,139,37.2,143.31,36.84Zm-17.22,2.31c-1.38,5.48,2.84,6.1,4.93,8.14,2.33,2.27,4.95,4.21,9,4.16C135.84,46.5,132.49,41.46,126.09,39.15Zm41.36,7.36c-4.82-7-8.29-9.89-13.33-11.38-1.05,3.12.19,5.39,2.86,6.76C160.1,43.5,163.41,44.75,167.45,46.51ZM264,140q2.41-9.78,4.82-19.58l-1.22-.27C263.84,126.26,261.06,132.57,264,140ZM179.9,17.33c1-5.78,1.19-11.35-5-16C173.52,8.33,177.44,12.61,179.9,17.33ZM162.26,54a18.85,18.85,0,0,0-2.2-1.76c-5.74-2.63-9.29-6.7-9.19-13.4,0-1-.86-2-1.49-3.32-2.93,2.78-1.7,5.16-.54,7.33C151.55,48,154.2,53.22,162.26,54ZM169.47,5.1c-1.25,6.23-.16,8.11,8.63,15.42C175.31,14.8,174.29,9.46,169.47,5.1Zm115,135c4.41-1.72,10.66-.79,11.91-7.88C290.56,132.29,287.53,136.19,284.44,140.05ZM126.6,64.91,130,57.84c-5.06-.68-7.77.25-8.2,3C121.34,64.15,123.75,64.63,126.6,64.91Zm163.86,86.6-21-2.42C275.7,153.23,282.2,154.73,290.46,151.51ZM162.73,14.38c1-2,2.49-4.12.27-5.43s-5.06-.81-7.38,1.28C157.06,13.3,159,15,162.73,14.38Zm8.72,20.22c1.43-5.81.35-7.51-5.35-9.55C168,28.4,169.72,31.5,171.45,34.6ZM195,359.89h1.2c.49-3.06,1.32-6.15-1.2-9.47ZM171.06,3.3c-4.37-1.3-5.65-1.26-6.65.45-1.19,2-.17,3.57,1.17,5.22C167.75,3.9,167.75,3.9,171.06,3.3Zm-2.41,45,5.18,6.18C175.07,50.77,175.07,50.77,168.65,48.32Zm-4.52-26.17c-.88-4.1-.88-4.1-3.28-6C160.15,19.23,161.5,20.83,164.13,22.15ZM270,125.48c1.78-2.3,3.81-3.7,3.88-6.84C271,120.2,269.65,122,270,125.48ZM155.09,14.08c1.52,2.88,2.55,4.83,3.57,6.78l1-.55C158.24,18.51,159.58,15.29,155.09,14.08ZM178.8,60.72c-3.56-1.82-3.56-1.82-6.45,0ZM139.62,38.45c-4.94.76-4.94.76-3.47,3.8Zm44.25,28.73c-.63-2.75-.63-2.75-3.09-4ZM163.13,49.6c-.12-2-1-3.07-3.7-3Zm-8-6.36-1.16.91,2.13,2.62.91-.67Z"/></g></g></svg>