<svg xmlns="http://www.w3.org/2000/svg" viewBox="0 0 608.64 529.64"><g id="Layer_2" data-name="Layer 2"><g id="Layer_1-2" data-name="Layer 1"><path d="M568.7,468.31,559,458.17l-.71-.58c-9.51-8.23-19.72-15.41-32-19-.87-.25-1.7-.63-2.55-.92-20.38-6.85-41.39-9.2-62.79-8.81-26,.48-51.95,1.14-77.92,1.19-27.11.05-54.05,2.45-81,4.78-18.46,1.6-36.92,3.33-55.45,1.76-12.06-1-23.71-3.89-33.84-10.87-8.5-5.86-15.71-13-18.35-23.49-1.45-5.73-1.09-11.2,3.4-15.57,7-6.83,14-13.8,21.36-20.2C235.5,352.28,250.81,337,264.19,320c16.85-21.48,28.53-45.92,38.47-71.17,3.11-7.92,5.12-16.28,7.58-24.44.46-1.51,1.37-3.41-.54-4.4-2.21-1.14-3.18.94-4.24,2.34-.87,1.15-1.64,2.39-2.41,3.62q-5.24,8.31-10.44,16.62C273.63,273,252.7,302,229,328.89c-.94,1.08-2,2-3.05,3a21.36,21.36,0,0,1,1.76-6.09c8.16-20,15.52-40.33,20.77-61.35,1.67-6.67,4.12-13.13,6.16-19.71a9.84,9.84,0,0,0,.13-2.25,7.12,7.12,0,0,0-3.46,3.34c-5.64,10.37-11.17,20.8-16.85,31.15-10.53,19.19-19,39.19-24.43,60.45-1.78,7-3.65,14.07-5.49,21.09a26.15,26.15,0,0,1-5.67,10.55,36.23,36.23,0,0,1,.29-4.75c4.09-19.21,3.33-38.65,3.14-58.1a163.73,163.73,0,0,1,1.33-23.32c1.2-9,3.16-17.88,5.12-26.75,7.27-32.9,20.34-63.19,41.11-89.93,2.55-3.29,5.33-6.4,8.26-9.89l1.56,2.64,2.59-2.71,1.32,2.52c1.27-.44,2.46-2.06,3.61.05,1.76-2.68-2.8-4.88-.22-7.81,5.3,2.87,10.86,4.84,17,4.5s13.3-3.79,15.69-7.84l-11.28,1c5.86-2.82,11.48-5.38,16.93-10.34l-8.85-1,3.39-7.71-7.39.72c.93-2.32,1.68-4.21,2.44-6.09l-.83-.51-5.31,2.84,2.91-7.32-1-.9-11.86,6.16,1.93-10.33-1-.72c-1.64,3.25-4.85,3.36-7.22,3.1-5.62-.63-7.5,3-9.48,6.82-3.59,6.92-4.66,14.08-1.17,22.12-1.81,1.1-3.58,2.15-5.33,3.23-1.36.84-2.74,1.66-4,2.62-.24.18,0,.95,0,1.57l4.58-1c-1.21,1.92-2,3.31-3,4.64-.51.74-1.21,1.35-1.79,2A209.25,209.25,0,0,0,225.63,199c-12.14,23.86-19.31,49.3-23.5,75.66-.26,1.62-.73,3.22-1.1,4.83a79.2,79.2,0,0,1,1.65-29.95c5.29-22.26,10.8-44.46,16.36-66.65,4.61-18.45,7.26-37.09,5.67-56.13-1.91-22.86-10.59-42.48-28.51-57.41-3.42-2.85-4.48-7-7.28-10.69,3.7.42,5.13,4.25,9.36,3.83-1.27-2.6-2.26-4.63-3.52-7.23L201,58.36l.92-.68L199,50.5h5.85c-1.18-1.53-1.74-2.67-2.64-3.36-3.55-2.75-7.39-2.23-11.4-1-4.62,1.42-7.48-.7-8.32-5.51a45.15,45.15,0,0,1-.12-17.3,35.22,35.22,0,0,0,.88-10.8,26,26,0,0,0-3.13-9.64c-1.86-3.36-3.09-3.38-7-2.13A3.77,3.77,0,0,1,171,1c-6.71-1.91-7.58.57-9.69,5.49-6.14.88-6.14.88-8.08,5.5-4.84.55-4.84.55-6.18,5.14-2.48,0-5.15-.16-6.1,3-.84,2.84-1.64,5.69-2.41,8.37-7.68.79-8.72,1.78-10,9.15-4.91,1-5.07,1.27-4.06,7-5.15,2.8-6.21,7-1,10.73-1.1,1.84-2.79,3.57-3.08,5.51-.26,1.77,1,3.76,1.77,6.25-1.69-.78-3-1.76-4.52-2a5.12,5.12,0,0,0-3.78.94,3.43,3.43,0,0,0-.2,3.34c1.71,2.41,3.82,4.54,6,7-.24.21-.89.75-1.51,1.32-4.17,3.83-.77,7.76,2.72,8.42a9.54,9.54,0,0,0,4.32,0c3.45-1,7.15-1.87,10.12-3.77C141.41,78.54,147.1,74,153,69.74c2.68-1.95,5.37-3.88,8.68-6.27,1.15,5.39,2,9.78,3,14.13,1.11,4.62,4,6.71,8.72,6.53L168.59,77c3.47,1,5.15,4.68,9.27,4l-3.48-7.52c2.94,1,3.67,4.34,7,3-.66-2-1.31-3.9-2.18-6.48,4.25,3.77,4.25,3.77,7.36.07l3.69,1.44c-.42-1.88-.69-3.11-1-4.35,3.2,1.94,5.45,4.55,7.94,6.91a76.65,76.65,0,0,1,20.35,32.41c6,18.46,6,37.43,2.31,56.07-5,25.09-11.29,49.93-17.35,74.8-3.07,12.58-5.48,25.15-5,38.2.56,16.15.8,32.31,1.15,48.46.16,7.93.4,15.87-1.35,24.67a25,25,0,0,1-2.38-11.81c.45-13.47.08-26.91-2.25-40.21q-8.41-48-17.07-96c-1.06-5.89-2.42-11.73-3.72-17.58-.35-1.57-.78-3.38-3.86-2.22.94,41,3.39,81.95,13,122.26-5.57-15.41-10.62-30.92-13.77-47-1.78-9.09-3.54-18.18-5.38-27.26-.37-1.84-.5-3.94-3.36-5.32a28.47,28.47,0,0,0-.89,4.83,84,84,0,0,0,.48,9.78c1.57,13,3.47,25.91,4.87,38.9,2.07,19.34,4.36,38.62,10.41,57.23a5.3,5.3,0,0,1-.09,1.63,8.19,8.19,0,0,1-1.36-1.21c-9.34-14.64-21.08-27.29-32.83-40A157,157,0,0,1,112.56,257c-4.87-9.94-9.33-20.08-14-30.13-.78-1.68-1.64-3.33-2.46-5l-1.24.48c.37,1.71.7,3.44,1.13,5.14,6.16,24.51,14.46,48.34,22.58,72.24,9.12,26.86,25,48.6,47.89,65.23,8.41,6.1,15.62,13.52,22.74,20.84-.3,1.34-.56,2.39-.76,3.45a29,29,0,0,1-.64,3.63c-4,11.77-11.81,20.69-21.49,28.16a136.86,136.86,0,0,1-26.76,15.6q-45.27,20.81-90.42,41.84a16.82,16.82,0,0,1-11,1.31,85.73,85.73,0,0,0-12.9-1.88,36.59,36.59,0,0,0-21.82,6.23c5.83-1.12,11.52-2.92,17.36-3.72,6.07-.84,12.11.35,19.49,2.79C19.61,491.53,7.12,506,0,525.39a47.33,47.33,0,0,0,5.63-8.32c7.34-14.38,18.84-24.22,33.3-30.9q20.25-9.35,40.54-18.67a9.47,9.47,0,0,1,2.37-.26c-11.22,16.05-16.15,33.57-17.78,52.18,3.84-11.83,6.12-24.2,11.88-36.09,1.23,5.14,2,9.43,3.31,13.58s3.06,8.15,4.53,12.25c1.4,3.92,2.69,7.88,4,11.83.66,2,1.28,3.91,1.91,5.87l1.21-.37a62.47,62.47,0,0,0-4-17.13c-2.82-7.26-5.35-14.65-7.51-22.13-2.62-9.05,5.18-22.5,13-25.88,17.15-7.42,34-15.65,50.92-23.47a125,125,0,0,0,28.58-17.8c1.9-1.6,3.73-3.29,5.59-4.95-13.05,33-19.08,66.64-12.74,101.88,1.27-17-1.7-34.2,2.07-51.78a30.2,30.2,0,0,1,2.14,2.28c4.07,5.48,9.4,9.26,16.08,10.43a122.2,122.2,0,0,0,20.5,2.22c22.37.09,44.57-2.48,66.79-4.84,18.95-2,37.95-3.54,56.92-5.39a8.61,8.61,0,0,1,7.82,2.89c2.86,3.28,5.72,6.58,8.28,10.1,6,8.27,5.44,11.25-3.55,16.13a134.57,134.57,0,0,1-14.43,6.35c-7.26,2.9-14.48,5.85-20.81,10.55-1.69,1.26-3.17,2.81-4.74,4.23a154.32,154.32,0,0,1,24.52-12c9.07-3.44,18.64-6,25.41-14.32,3.9,8.26,6.88,16.36,13.18,22.38-3.79-8.81-7.34-17.74-12-26.05-4-7.18-9.29-13.66-14-20.45,28.36-2.95,55.18,3.56,81.29,17.61a10.56,10.56,0,0,0-1-1.84A17.75,17.75,0,0,0,417,483.9c-16.61-9.55-34.32-15.48-53.55-16.77-20.41-1.37-40.67.89-60.91,2.59-25.32,2.12-50.55,5.37-75.86,7.54-10.64.9-21.42.62-32.11.25-8.13-.29-15.71-2.85-21.6-9-4.13-4.29-6-8.79-4.4-15.2a318,318,0,0,1,19.4-53.69,14.56,14.56,0,0,1,1.36-1.95c.37.85.58,1.27.74,1.71,6.21,17.06,17.56,29,34.85,35C235.3,438,246.07,439,257,439.16c24.95.43,49.65-3,74.47-4.41,13.78-.78,27.56-1.91,41.34-2,27.44-.1,54.88.35,82.26-1.59,4.64-.33,7.14,1.72,9.37,5,4.79,7,7.48,14.89,9.08,23.17,2.62,13.56,4.58,27.21,4.38,41.08,0,2,.26,3.94.41,5.9l1.41-.09c.31-10,.43-20-.81-30.23,6,2.57,11.38,5.23,17,7.17a95.36,95.36,0,0,1,23.74,12c2.59,1.82,5.21,3.59,7.81,5.38a5.12,5.12,0,0,0-1.72-3.21c-8.25-6.92-17-12.9-27.4-16.39-5.48-1.84-10.69-4.48-16-6.76-2.92-1.25-4.32-3.26-4.65-6.62a101.77,101.77,0,0,0-2.63-13.89,55.75,55.75,0,0,0-11-22.24,34.13,34.13,0,0,1,3.81-.2c9.23.7,18.54.89,27.66,2.31,14.69,2.29,29,5.74,42.29,13.21a115.24,115.24,0,0,1,37.56,34.14c6.56,9.15,13.18,18.3,19.11,27.86,4.17,6.72,7.69,13.85,11.35,20.89h2.79A116.5,116.5,0,0,0,598,509.79C588.58,495.74,578.52,482.11,568.7,468.31ZM243.84,266.86c-.18,11.72-25.29,74.87-33.11,83.2C216.67,320.07,228.57,293.08,243.84,266.86ZM205.17,368.51c5.14-8.31,10-16.91,16-24.55,11.58-14.66,24.2-28.5,35.82-43.14,16-20.2,30.07-41.84,43.49-63.86,1-1.67,2.15-3.27,3.23-4.91l1,.47c-5.55,23.16-16.83,43.88-28.44,64.35-18.49,32.63-46.44,56.7-75.36,81.39C202.62,374.33,203.51,371.19,205.17,368.51Zm85.29-217c-8.26,3.22-14.76,1.72-21-2.42ZM300,140.82c-2.62,1.3-5.2,2.71-7.89,3.85-2.48,1.05-5.12,1.72-7.62,2.73a10.91,10.91,0,0,1-9.15-.38C283.15,142.55,290.61,138.55,300,140.82Zm-3.68-8.65c-1.25,7.09-7.5,6.16-11.91,7.88C287.53,136.19,290.56,132.29,296.35,132.17Zm-27,13.61c5.19-6.44,12.61-9.78,19.16-14.31A32.85,32.85,0,0,1,269.34,145.78Zm19-24.18c-2.5,8.81-8.48,12.68-15.41,16.85C275.33,130,280.82,125.69,288.35,121.6Zm-11.49,0,1.05.69c-3.14,6.77-6.27,13.54-9.62,20.75C266.27,137.13,269.77,128.85,276.86,121.59Zm-3-3c-.07,3.14-2.1,4.54-3.88,6.84C269.65,122,271,120.2,273.84,118.64Zm-6.2,1.54,1.22.27q-2.42,9.8-4.82,19.58C261.06,132.57,263.84,126.26,267.64,120.18ZM178.1,20.52c-8.79-7.31-9.88-9.19-8.63-15.42C174.29,9.46,175.31,14.8,178.1,20.52Zm-8.82,2.76c-3.43-2.35-4.75-5.69-3.73-10.27,11.9,6.71,13.32,17.68,13.15,29.63-3.17-1.76-4.47-4.2-3.93-7.38C175.68,30,173.59,26.22,169.28,23.28Zm2.17,11.32c-1.73-3.1-3.47-6.2-5.35-9.55C171.8,27.09,172.88,28.79,171.45,34.6Zm-7-30.85c1-1.71,2.28-1.75,6.65-.45-3.31.6-3.31.6-5.48,5.67C164.24,7.32,163.22,5.78,164.41,3.75ZM163,9c2.22,1.31.7,3.45-.27,5.43-3.75.62-5.67-1.08-7.11-4.15C157.94,8.14,160.64,7.56,163,9Zm1.13,13.2c-2.63-1.32-4-2.92-3.28-6C163.25,18.05,163.25,18.05,164.13,22.15Zm-4.5-1.84-1,.55c-1-1.95-2-3.9-3.57-6.78C159.58,15.29,158.24,18.51,159.63,20.31Zm-9.35-6.49a2.5,2.5,0,0,1,3.6,1.39c1.62,3.43,4.51,6.48,2.58,11-.68,1.59.11,3.81.3,7a16.74,16.74,0,0,1-1.5-2.13q-2.85-6.69-5.64-13.4C149,16.21,148.62,14.71,150.28,13.82Zm-9.61,11.11c2,2,3.34,3.31,4.66,4.6,1,1,2,1.9,3,2.85-1.73-2.72-3.48-5.43-5.18-8.16-.92-1.47-1.49-3.43.13-4.31a6.12,6.12,0,0,1,4.86,0c2.56,1.19,5.81,9.85,5,12.46-.25.77-1.11,1.33-1.83,2.15-1-.69-1.89-1.27-2.76-1.84l-2.73,4.42c-2.15-3-4-5.42-5.52-8C139.86,28.42,140.41,27.17,140.67,24.93ZM141,48.64a5.84,5.84,0,0,1-2.61-4.25c-.08-1.16,1.38-2.9,2.6-3.58,1.79-1,3.52.06,4.69,1.66,2.61,3.59,5.17,7.23,7.91,11.06C149.16,51.87,144.93,50.55,141,48.64Zm13.78,8.29c-8.74,1.42-15.91,7.42-26,9.18,1.71-7.48,6.78-9.71,11.31-12.46C145.87,50.16,149.89,55.19,154.77,56.93ZM136.15,42.25c-1.47-3-1.47-3,3.47-3.8Zm-3.13-11c3.07-1.82,6.46-.12,10.29,5.63C139,37.2,134.38,35.17,133,41,130.12,36.19,130.24,32.86,133,31.21Zm-6.93,7.94c6.4,2.31,9.75,7.35,13.91,12.3-4,0-6.65-1.89-9-4.16C128.93,45.25,124.71,44.63,126.09,39.15Zm-3.45,9.58c1-1.88,3.88-2.42,6.17-.94,2.51,1.63,4.89,3.49,7.64,5.47-4,2.9-7.6,3.06-11.54.72C122.5,52.54,121.66,50.59,122.64,48.73Zm-.81,12.15c.43-2.79,3.14-3.72,8.2-3l-3.43,7.07C123.75,64.63,121.34,64.15,121.83,60.88ZM118.55,73c-2.07-1.39-3.4-3-3.49-6.61l3.63,1.34c1,.36,2.21,1.25,3,1,6.22-2.21,13.23-.37,19.2-4.27,3.53-2.31,7.81-3.48,12.06-4.5-6,4.12-11.78,8.61-18.06,12.24C129.84,75.05,124.22,76.74,118.55,73Zm16.16,7.84c-3,2-7,2.65-10.65,3.6a7.08,7.08,0,0,1-4.2-.53,2.41,2.41,0,0,1-.57-4.34A14.58,14.58,0,0,1,125.72,77c6.09-.41,11-3,15.68-6.68,3.39-2.69,7-5.12,10.63-7.49a8.75,8.75,0,0,1,9.11-.72C152.36,68.4,143.73,74.89,134.71,80.79Zm14.13-37.91c-1.16-2.17-2.39-4.55.54-7.33.63,1.35,1.51,2.34,1.49,3.32-.1,6.7,3.45,10.77,9.19,13.4a18.85,18.85,0,0,1,2.2,1.76C154.2,53.22,151.55,48,148.84,42.88Zm5.08,1.27,1.16-.91L157,46.1l-.91.67Zm5.51,2.48c2.66-.1,3.58.93,3.7,3ZM157,41.89c-2.67-1.37-3.91-3.64-2.86-6.76,5,1.49,8.51,4.37,13.33,11.38C163.41,44.76,160.1,43.5,157,41.89Zm4.06-8.6c-2-1.92-3.84-4.12-2.8-7.14a5.47,5.47,0,0,1,2.64-3c.64-.27,2.3.85,2.92,1.75a62.76,62.76,0,0,1,9.09,18.4,11.54,11.54,0,0,1-2.34-1.13C167.35,39.25,164.13,36.33,161,33.29ZM173.83,54.5l-5.18-6.18C175.07,50.77,175.07,50.77,173.83,54.5Zm-1.48,6.22c2.89-1.82,2.89-1.82,6.45,0Zm7.55-43.39c-2.46-4.72-6.38-9-5-16C181.09,6,180.86,11.55,179.9,17.33Zm.88,45.85c2.46,1.25,2.46,1.25,3.09,4ZM195,350.43c2.52,3.32,1.69,6.41,1.2,9.47H195ZM171.51,192.49c2.86,15.7,5.85,31.38,8.56,47.11,3.66,21.3,7.27,42.6,10.54,64A171,171,0,0,1,192.1,328C176.1,284.14,171.46,238.57,171.51,192.49ZM190.9,383.11c-1.14-1-2.06-1.74-2.84-2.59A156.57,156.57,0,0,0,166,360.3c-20.28-15.18-35.13-34.52-43.58-58.54-5.9-16.77-11.69-33.58-17.52-50.38-.35-1-.57-2-.85-3l.8-.34c1.12,2.26,2.3,4.5,3.36,6.79A166.22,166.22,0,0,0,140,301.36a231.71,231.71,0,0,1,45.43,66.1C187.66,372.36,191.15,376.79,190.9,383.11Zm.49-12.54c-1.68-3.93-3.31-7.9-5.07-11.8-5.47-12.08-10.9-24.15-14.09-37.11a322.25,322.25,0,0,1-7.14-42.39c-1.2-11-2.77-22-4.14-32.94a8.31,8.31,0,0,1,.46-4.41c.63,3.33,1.34,6.64,1.89,10,3.51,21.24,10.19,41.6,17.24,61.84a216.35,216.35,0,0,1,11.28,48.71c.28,2.63.31,5.28.45,7.92Z"/></g></g></svg>